<svg width="74" height="74" viewBox="0 0 74 74" fill="none" xmlns="http://www.w3.org/2000/svg">
<circle cx="37" cy="37" r="37" fill="#499296"/>
<path d="M52.9597 23.0349L53.771 23.8461C54.8889 24.9654 54.7197 26.9495 53.3901 28.2778L36.6605 45.0074L31.2402 46.9901C30.5596 47.2404 29.8969 46.9159 29.7621 46.2683C29.7166 46.0333 29.738 45.7903 29.824 45.567L31.8452 40.1L48.5281 23.4158C49.8577 22.0875 51.8419 21.917 52.9597 23.0363V23.0349ZM35.9304 24.6986C36.1109 24.6986 36.2897 24.7342 36.4565 24.8033C36.6234 24.8724 36.775 24.9737 36.9026 25.1014C37.0303 25.229 37.1316 25.3806 37.2007 25.5474C37.2698 25.7143 37.3054 25.8931 37.3054 26.0736C37.3054 26.2542 37.2698 26.433 37.2007 26.5998C37.1316 26.7666 37.0303 26.9182 36.9026 27.0459C36.775 27.1736 36.6234 27.2749 36.4565 27.344C36.2897 27.4131 36.1109 27.4486 35.9304 27.4486H30.4304C29.701 27.4486 29.0015 27.7384 28.4858 28.2541C27.9701 28.7698 27.6804 29.4693 27.6804 30.1986V46.6986C27.6804 47.428 27.9701 48.1275 28.4858 48.6432C29.0015 49.1589 29.701 49.4486 30.4304 49.4486H46.9304C47.6597 49.4486 48.3592 49.1589 48.8749 48.6432C49.3906 48.1275 49.6804 47.428 49.6804 46.6986V41.1986C49.6804 40.834 49.8252 40.4842 50.0831 40.2264C50.341 39.9685 50.6907 39.8236 51.0554 39.8236C51.42 39.8236 51.7698 39.9685 52.0276 40.2264C52.2855 40.4842 52.4304 40.834 52.4304 41.1986V46.6986C52.4304 48.1573 51.8509 49.5563 50.8194 50.5877C49.788 51.6192 48.389 52.1986 46.9304 52.1986H30.4304C28.9717 52.1986 27.5727 51.6192 26.5413 50.5877C25.5098 49.5563 24.9304 48.1573 24.9304 46.6986V30.1986C24.9304 28.7399 25.5098 27.341 26.5413 26.3095C27.5727 25.2781 28.9717 24.6986 30.4304 24.6986H35.9304Z" fill="white"/>
</svg>
