<svg width="114" height="19" viewBox="0 0 114 19" fill="none" xmlns="http://www.w3.org/2000/svg">
<g clip-path="url(#clip0_501_2091)">
<path d="M6.80859 5.25C3.41016 5.25 0.878906 7.52344 0.878906 11.8594C0.878906 16.3594 3.33984 18.3398 6.46875 18.3398C9.21094 18.3398 10.6875 16.3477 11.2383 14.5547L10.8164 14.4023C9.84375 16.0078 8.56641 16.3594 7.67578 16.3594C6.09375 16.3594 4.5 15.2461 4.5 11.5195C4.5 8.26172 5.54297 5.83594 7.53516 5.83594C8.16797 5.83594 8.73047 6.08203 8.97656 6.41016C8.12109 6.64453 7.39453 7.37109 7.39453 8.37891C7.39453 9.45703 8.10938 10.1602 9.24609 10.1602C10.3477 10.1602 11.1445 9.36328 11.1445 8.22656C11.1445 7.27734 10.6289 6.48047 9.82031 5.98828C9.12891 5.55469 8.05078 5.25 6.80859 5.25ZM18.6797 5.25C15.2344 5.25 12.8086 7.05469 12.8086 11.8008C12.8086 16.5586 15.2344 18.3398 18.6797 18.3398C22.1367 18.3398 24.5625 16.5586 24.5625 11.8008C24.5625 7.05469 22.1367 5.25 18.6797 5.25ZM18.6797 5.73047C19.9922 5.73047 20.9414 7.51172 20.9414 11.8008C20.9414 16.1016 19.9922 17.8594 18.6797 17.8594C17.3789 17.8594 16.4297 16.1016 16.4297 11.8008C16.4297 7.51172 17.3789 5.73047 18.6797 5.73047ZM34.9688 5.25C33.2812 5.25 31.8516 5.85938 31.0547 7.48828V5.32031C30.0469 5.55469 28.8867 5.66016 27.5508 5.66016C27.0703 5.66016 26.5664 5.625 26.0625 5.57812V6.08203C27.2227 6.08203 27.5977 6.76172 27.5977 8.20312V15.7734C27.5977 17.1094 27.1758 17.4961 26.0625 17.4961V18C26.6953 17.9766 28.1367 17.9062 29.3672 17.9062C30.5391 17.9062 31.7812 17.9766 32.3438 18V17.4961C31.3945 17.4961 31.0547 17.1094 31.0547 15.7734V9.08203C31.0547 7.5 32.0859 6.30469 33.4336 6.30469C34.6289 6.30469 34.9102 7.11328 34.9102 8.30859V15.7734C34.9102 17.1094 34.5703 17.4961 33.6211 17.4961V18C34.207 17.9766 35.5078 17.9062 36.7383 17.9062C37.9102 17.9062 39.293 17.9766 39.9023 18V17.4961C38.7891 17.4961 38.3672 17.1094 38.3672 15.7734V9.30469C38.3672 7.67578 38.1445 6.79688 37.6172 6.1875C37.125 5.625 36.3398 5.25 34.9688 5.25ZM49.7109 5.25C48.0234 5.25 46.5938 5.85938 45.7969 7.48828V5.32031C44.7891 5.55469 43.6289 5.66016 42.293 5.66016C41.8125 5.66016 41.3086 5.625 40.8047 5.57812V6.08203C41.9648 6.08203 42.3398 6.76172 42.3398 8.20312V15.7734C42.3398 17.1094 41.918 17.4961 40.8047 17.4961V18C41.4375 17.9766 42.8789 17.9062 44.1094 17.9062C45.2812 17.9062 46.5234 17.9766 47.0859 18V17.4961C46.1367 17.4961 45.7969 17.1094 45.7969 15.7734V9.08203C45.7969 7.5 46.8281 6.30469 48.1758 6.30469C49.3711 6.30469 49.6523 7.11328 49.6523 8.30859V15.7734C49.6523 17.1094 49.3125 17.4961 48.3633 17.4961V18C48.9492 17.9766 50.25 17.9062 51.4805 17.9062C52.6523 17.9062 54.0352 17.9766 54.6445 18V17.4961C53.5312 17.4961 53.1094 17.1094 53.1094 15.7734V9.30469C53.1094 7.67578 52.8867 6.79688 52.3594 6.1875C51.8672 5.625 51.082 5.25 49.7109 5.25ZM62.6016 16.3594C61.0781 16.3594 59.4727 15.0586 59.4727 11.7188C59.4727 11.332 59.4844 10.9336 59.5195 10.582H66.2344C66.2344 6.82031 64.5234 5.25 61.7227 5.25C58.3125 5.25 55.8516 7.46484 55.8516 11.918C55.8516 16.3008 58.1484 18.3398 61.3828 18.3398C64.043 18.3398 65.6133 16.4062 66.1875 14.6016L65.7539 14.4375C64.7812 16.0312 63.5625 16.3594 62.6016 16.3594ZM61.582 5.76562C62.7539 5.76562 63.2578 7.78125 63.2109 10.125H59.4492C59.6484 7.01953 60.5039 5.76562 61.582 5.76562ZM73.8867 5.25C70.4883 5.25 67.957 7.52344 67.957 11.8594C67.957 16.3594 70.418 18.3398 73.5469 18.3398C76.2891 18.3398 77.7656 16.3477 78.3164 14.5547L77.8945 14.4023C76.9219 16.0078 75.6445 16.3594 74.7539 16.3594C73.1719 16.3594 71.5781 15.2461 71.5781 11.5195C71.5781 8.26172 72.6211 5.83594 74.6133 5.83594C75.2461 5.83594 75.8086 6.08203 76.0547 6.41016C75.1992 6.64453 74.4727 7.37109 74.4727 8.37891C74.4727 9.45703 75.1875 10.1602 76.3242 10.1602C77.4258 10.1602 78.2227 9.36328 78.2227 8.22656C78.2227 7.27734 77.707 6.48047 76.8984 5.98828C76.207 5.55469 75.1289 5.25 73.8867 5.25ZM94.4062 1.00781C92.2383 1.07812 89.1562 1.07812 87.0117 1.07812C84.8672 1.07812 81.7617 1.07812 79.5938 1.00781C79.7109 2.63672 79.7578 4.28906 79.7578 5.08594C79.7578 5.80078 79.7344 6.46875 79.6875 6.91406H80.2383C81.0586 2.85938 82.3008 1.55859 84.5625 1.55859H85.0898V15.2578C85.0898 17.2148 84.6562 17.4961 82.5234 17.5195V18C83.4727 17.9648 85.1367 17.9297 86.9062 17.9297C88.6758 17.9297 90.457 17.9648 91.4766 18V17.5195C89.3438 17.4961 88.9102 17.2148 88.9102 15.2578V1.55859H89.4375C91.6758 1.55859 92.9414 2.87109 93.75 6.91406H94.3008C94.2539 6.46875 94.2305 5.80078 94.2305 5.08594C94.2305 4.28906 94.2773 2.63672 94.4062 1.00781ZM104.543 0.667969C99.5508 0.667969 96.0469 4.27734 96.0469 9.64453C96.0469 15.1406 99.4336 18.3398 104.52 18.3398C109.5 18.3398 113.016 14.7305 113.016 9.36328C113.016 3.86719 109.617 0.667969 104.543 0.667969ZM104.438 1.10156C106.98 1.10156 109.031 4.34766 109.031 9.45703C109.031 14.4258 107.297 17.9062 104.613 17.9062C102.082 17.9062 100.031 14.6602 100.031 9.55078C100.031 4.58203 101.754 1.10156 104.438 1.10156Z" fill="white"/>
</g>
<defs>
<clipPath id="clip0_501_2091">
<rect width="114" height="19" fill="white"/>
</clipPath>
</defs>
</svg>
