<svg width="21" height="19" viewBox="0 0 21 19" fill="none" xmlns="http://www.w3.org/2000/svg">
<path d="M19.3968 6.93096L13.6939 6.10215L11.1446 0.933886C11.075 0.792382 10.9605 0.677831 10.8189 0.608202C10.4641 0.433007 10.0328 0.579003 9.85537 0.933886L7.30606 6.10215L1.60323 6.93096C1.446 6.95342 1.30225 7.02754 1.19219 7.13984C1.05914 7.2766 0.985817 7.46059 0.988344 7.65137C0.990871 7.84216 1.06904 8.02414 1.20567 8.15732L5.33174 12.1801L4.35694 17.8604C4.33408 17.9926 4.3487 18.1285 4.39915 18.2527C4.44959 18.377 4.53384 18.4846 4.64235 18.5634C4.75085 18.6422 4.87926 18.6891 5.01302 18.6986C5.14678 18.7081 5.28054 18.68 5.39913 18.6174L10.5 15.9355L15.6009 18.6174C15.7401 18.6915 15.9019 18.7162 16.0568 18.6893C16.4477 18.6219 16.7105 18.2513 16.6431 17.8604L15.6683 12.1801L19.7943 8.15732C19.9066 8.04727 19.9808 7.90351 20.0032 7.74629C20.0639 7.35322 19.7898 6.98936 19.3968 6.93096Z" fill="#267A7D"/>
</svg>
