<svg width="74" height="74" viewBox="0 0 74 74" fill="none" xmlns="http://www.w3.org/2000/svg">
<circle cx="37" cy="37" r="37" fill="#499296"/>
<g clip-path="url(#clip0_501_2263)">
<path d="M50.0417 20.375H24.9583C22.9875 20.375 21.375 21.9875 21.375 23.9583V49.0417C21.375 51.0125 22.9875 52.625 24.9583 52.625H50.0417C52.0125 52.625 53.625 51.0125 53.625 49.0417V23.9583C53.625 21.9875 52.0125 20.375 50.0417 20.375ZM32.125 45.4583H28.5417V36.5H32.125V45.4583ZM39.2917 45.4583H35.7083V40.0833H39.2917V45.4583ZM39.2917 36.5H35.7083V32.9167H39.2917V36.5ZM46.4583 45.4583H42.875V27.5417H46.4583V45.4583Z" fill="white"/>
</g>
<defs>
<clipPath id="clip0_501_2263">
<rect width="43" height="43" fill="white" transform="translate(16 15)"/>
</clipPath>
</defs>
</svg>
