<svg width="143" height="124" viewBox="0 0 143 124" fill="none" xmlns="http://www.w3.org/2000/svg">
<path d="M54.7224 68.6508C56.3624 69.7908 58.0824 70.9808 59.6724 72.0808C60.6124 72.7208 61.4724 73.3008 62.1524 73.7508C62.4624 74.0408 62.9524 74.3708 63.3024 74.6408C63.1124 74.4808 63.2124 74.4908 63.3624 74.6008C64.4624 75.3808 63.4624 74.6108 64.5924 75.3708C65.2224 75.7708 66.6524 76.7808 68.0924 77.8108C70.1224 79.2708 72.1824 80.7508 73.1624 81.4508C73.2324 81.2208 73.2624 81.0808 73.3024 80.9708C73.4424 80.2508 73.6324 79.5308 73.8124 78.8208C73.9024 78.4608 74.0024 78.1108 74.0924 77.7608C74.1224 77.6208 74.1624 77.4808 74.1924 77.3508C74.2124 77.2508 74.2324 77.1608 74.2524 77.0708V77.1508C74.4224 76.3808 75.6524 72.1008 75.8524 71.2108L75.8124 71.3308C75.9624 70.5408 76.0324 70.6808 76.2224 70.0808C76.1024 70.1308 76.2124 69.4608 76.2724 69.2008L76.2924 69.2208C76.3724 68.8408 76.5124 67.9508 76.6624 67.3208L76.7124 67.3608C76.7924 66.8208 77.0724 65.8408 77.1724 65.4708C77.4224 64.6208 77.8724 63.3208 78.1024 62.1508L78.4624 61.4508L78.4724 61.3408L78.8324 58.7508C78.9024 58.1608 76.4424 59.5308 76.4124 59.4608C76.5924 59.3908 76.7724 59.3108 76.8224 59.3108C76.7624 59.3008 76.4124 59.4308 76.2324 59.5308V59.6208C75.8124 59.8308 76.1124 59.6208 75.7024 59.8008C75.6524 59.7508 76.0324 59.5708 76.3624 59.4208C76.0524 59.5408 75.7324 59.6208 75.6424 59.7408C75.3424 59.8408 75.6424 59.6508 75.2924 59.7708C75.0524 59.8908 74.7624 60.0908 74.4624 60.1708V60.1608C73.7524 60.3808 73.4524 60.7008 72.8024 60.9008L72.8624 60.8508C72.6324 60.9108 72.2124 61.1408 71.7924 61.2708C71.9124 61.2308 72.0324 61.2408 71.7924 61.3508C71.3224 61.5008 71.0224 61.6808 70.6624 61.7708L70.3624 61.9708C68.7624 62.6308 62.5024 65.3808 60.9024 66.0708L60.9624 66.0308C59.4024 66.6508 57.1524 67.6108 54.7224 68.6508Z" fill="#948BB7" fill-opacity="0.25"/>
<path d="M49.9324 48.6108C51.5624 47.4508 53.2625 46.2408 54.8425 45.1208C55.7625 44.4608 56.6024 43.8408 57.2524 43.3508C57.6324 43.1608 58.1024 42.8108 58.4724 42.5708C58.2524 42.6908 58.3025 42.6008 58.4525 42.4908C59.5625 41.7208 58.5024 42.4008 59.6024 41.6008C60.1924 41.1508 61.6224 40.1408 63.0824 39.1408C65.1424 37.7308 67.2324 36.2908 68.2224 35.6108C68.0324 35.4708 67.9124 35.3908 67.8124 35.3208C67.1824 34.9408 66.5724 34.5308 65.9624 34.1008C65.6624 33.8908 65.3524 33.6808 65.0624 33.4808C64.9424 33.4008 64.8224 33.3208 64.7124 33.2408C64.6324 33.1908 64.5524 33.1408 64.4724 33.0908L64.5424 33.1108C63.8724 32.6908 60.2624 30.0808 59.4924 29.5808L59.5824 29.6608C58.8924 29.2508 59.0424 29.2308 58.5424 28.8508C58.5524 28.9808 57.9525 28.6408 57.7325 28.5008L57.7524 28.4908C57.4224 28.2808 56.6325 27.8508 56.0925 27.4908L56.1424 27.4508C55.6624 27.1908 54.8424 26.5908 54.5124 26.3808C53.7924 25.8508 52.7225 24.9908 51.7025 24.3708L51.1624 23.7908L51.0624 23.7408L48.7424 22.5208C48.2124 22.2508 48.6625 25.0308 48.5925 25.0408C48.5825 24.8508 48.5724 24.6608 48.5824 24.6008C48.5524 24.6508 48.5524 25.0308 48.5824 25.2308L48.6624 25.2608C48.7124 25.7208 48.6224 25.3708 48.6524 25.8208C48.5824 25.8508 48.5524 25.4308 48.5224 25.0708C48.5324 25.4008 48.5024 25.7308 48.5824 25.8608C48.5724 26.1708 48.5024 25.8308 48.4924 26.2008C48.5224 26.4608 48.6124 26.8108 48.5824 27.1208L48.5724 27.1108C48.5424 27.8608 48.7325 28.2408 48.7025 28.9208L48.6724 28.8508C48.6424 29.0908 48.7225 29.5608 48.7025 30.0008C48.7125 29.8808 48.7524 29.7708 48.7724 30.0208C48.7524 30.5208 48.8124 30.8608 48.7824 31.2208L48.8624 31.5608C48.9424 33.2908 49.3924 40.1208 49.5024 41.8508L49.4924 41.7808C49.6424 43.5208 49.7824 45.9708 49.9324 48.6108Z" fill="#948BB7" fill-opacity="0.25"/>
<path d="M21.8324 1.3208C22.4624 2.1208 23.1224 2.9708 23.7324 3.7508C24.0924 4.2008 24.4224 4.6208 24.6924 4.9408C24.8024 5.1308 24.9924 5.36082 25.1224 5.55082C25.0524 5.44081 25.1024 5.46081 25.1624 5.54081C25.5824 6.09081 25.2124 5.5608 25.6424 6.1008C25.8824 6.3908 26.4324 7.1008 26.9824 7.8208C27.7524 8.8408 28.5324 9.87081 28.9024 10.3608C28.9724 10.2608 29.0124 10.2008 29.0424 10.1508C29.2224 9.82082 29.4224 9.50082 29.6224 9.18082C29.7224 9.02082 29.8224 8.86081 29.9224 8.70081C29.9624 8.64081 30.0024 8.58081 30.0324 8.51081C30.0524 8.47081 30.0824 8.4208 30.1024 8.3808L30.0924 8.42081C30.2924 8.07081 31.5424 6.17081 31.7724 5.76081L31.7324 5.81079C31.9224 5.45079 31.9424 5.52081 32.1224 5.26081C32.0524 5.27081 32.2124 4.95079 32.2824 4.84079L32.2924 4.8508C32.3924 4.6708 32.5924 4.26081 32.7624 3.98081L32.7824 4.01081C32.9024 3.76081 33.1924 3.33082 33.2924 3.15082C33.5424 2.77082 33.9624 2.21081 34.2524 1.67081L34.5324 1.3808L34.5524 1.33081L35.1224 0.120792C35.2524 -0.159208 33.8424 0.140803 33.8324 0.100803C33.9324 0.0908027 34.0324 0.0807929 34.0624 0.0907929C34.0324 0.0707929 33.8424 0.0808125 33.7424 0.110812L33.7324 0.150821C33.5024 0.190821 33.6724 0.1308 33.4424 0.1608C33.4224 0.1308 33.6424 0.100814 33.8224 0.0808137C33.6524 0.0908137 33.4824 0.0808015 33.4224 0.130801C33.2624 0.130801 33.4324 0.0907929 33.2424 0.0907929C33.1124 0.110793 32.9324 0.1608 32.7724 0.1608V0.150821C32.3924 0.150821 32.2024 0.260806 31.8524 0.260806L31.8924 0.240817C31.7724 0.230817 31.5324 0.280795 31.3124 0.280795C31.3724 0.280795 31.4324 0.300804 31.3024 0.320804C31.0424 0.320804 30.8724 0.360803 30.6924 0.350803L30.5224 0.400821C29.6424 0.480821 26.1724 0.870798 25.2824 0.970798L25.3124 0.960819C24.4224 1.06082 23.1824 1.1908 21.8324 1.3208Z" fill="#948BB7" fill-opacity="0.25"/>
<path d="M133.712 55.8008C134.532 55.1908 135.392 54.5508 136.182 53.9608C136.642 53.6108 137.072 53.2908 137.392 53.0308C137.582 52.9308 137.822 52.7508 138.012 52.6208C137.902 52.6808 137.922 52.6408 138.002 52.5808C138.562 52.1808 138.022 52.5308 138.582 52.1108C138.882 51.8708 139.602 51.3408 140.332 50.8108C141.372 50.0608 142.422 49.3108 142.922 48.9508C142.822 48.8808 142.762 48.8408 142.712 48.8008C142.382 48.6108 142.072 48.4108 141.752 48.2008C141.592 48.1008 141.432 47.9908 141.282 47.8908C141.222 47.8508 141.162 47.8108 141.102 47.7708C141.062 47.7508 141.022 47.7208 140.972 47.7008L141.012 47.7108C140.662 47.5008 138.792 46.2108 138.392 45.9708L138.442 46.0108C138.082 45.8108 138.162 45.8008 137.902 45.6108C137.912 45.6808 137.602 45.5108 137.482 45.4408L137.492 45.4308C137.322 45.3308 136.912 45.1208 136.632 44.9408L136.662 44.9208C136.412 44.7908 135.992 44.5008 135.822 44.3908C135.452 44.1308 134.892 43.7008 134.362 43.4008L134.082 43.1108L134.032 43.0908L132.832 42.4908C132.552 42.3608 132.822 43.7708 132.782 43.7808C132.772 43.6808 132.772 43.5808 132.772 43.5508C132.752 43.5808 132.762 43.7708 132.782 43.8708L132.822 43.8808C132.852 44.1108 132.802 43.9408 132.822 44.1708C132.792 44.1808 132.762 43.9708 132.752 43.7908C132.762 43.9608 132.752 44.1308 132.792 44.1908C132.792 44.3508 132.752 44.1808 132.752 44.3708C132.772 44.5008 132.822 44.6808 132.812 44.8408H132.802C132.792 45.2208 132.902 45.4108 132.892 45.7608L132.882 45.7208C132.872 45.8408 132.912 46.0808 132.912 46.3008C132.912 46.2408 132.932 46.1808 132.952 46.3108C132.952 46.5708 132.982 46.7408 132.972 46.9208L133.022 47.0908C133.082 47.9708 133.392 51.4508 133.462 52.3408L133.452 52.3108C133.512 53.2108 133.612 54.4608 133.712 55.8008Z" fill="#948BB7" fill-opacity="0.25"/>
<path d="M48.1324 117.641C50.0624 118.151 52.0825 118.681 53.9525 119.181C55.0525 119.461 56.0624 119.721 56.8524 119.901C57.2424 120.071 57.8125 120.211 58.2325 120.341C58.0025 120.251 58.0924 120.231 58.2824 120.281C59.5824 120.641 58.3825 120.261 59.7025 120.591C60.4325 120.761 62.1124 121.211 63.8224 121.691C66.2324 122.371 68.6724 123.051 69.8224 123.381C69.8024 123.141 69.7924 123.001 69.7824 122.881C69.6724 122.151 69.6024 121.421 69.5324 120.681C69.5024 120.311 69.4625 119.941 69.4324 119.591C69.4224 119.451 69.4024 119.311 69.3924 119.171C69.3824 119.081 69.3624 118.981 69.3524 118.891L69.3824 118.961C69.2724 118.181 68.9724 113.731 68.8624 112.831V112.951C68.7324 112.161 68.8424 112.261 68.8224 111.631C68.7224 111.721 68.6024 111.051 68.5724 110.791L68.5925 110.801C68.5425 110.411 68.3724 109.531 68.2924 108.891L68.3524 108.911C68.2424 108.381 68.1824 107.361 68.1324 106.971C68.0824 106.081 68.0625 104.711 67.8725 103.531L67.9724 102.751L67.9424 102.641L67.4025 100.081C67.2725 99.5008 65.4225 101.631 65.3725 101.581C65.5125 101.451 65.6524 101.321 65.7124 101.291C65.6524 101.301 65.3625 101.541 65.2325 101.691L65.2625 101.771C64.9425 102.111 65.1524 101.811 64.8224 102.121C64.7624 102.091 65.0524 101.791 65.3224 101.541C65.0724 101.761 64.8024 101.951 64.7524 102.091C64.5024 102.281 64.7225 102.011 64.4324 102.241C64.2524 102.441 64.0424 102.721 63.7924 102.901V102.891C63.2024 103.341 63.0325 103.741 62.4825 104.151L62.5224 104.081C62.3224 104.211 62.0124 104.571 61.6624 104.841C61.7624 104.771 61.8724 104.731 61.6924 104.911C61.3024 105.221 61.0824 105.481 60.7724 105.691L60.5624 105.981C59.2824 107.151 54.3324 111.871 53.0624 113.061L53.1024 113.011C51.8524 114.161 50.0624 115.831 48.1324 117.641Z" fill="#948BB7" fill-opacity="0.25"/>
<path d="M91.9624 73.3308C93.3024 74.8108 94.7024 76.3708 95.9924 77.8108C96.7624 78.6508 97.4624 79.4108 98.0224 80.0008C98.2624 80.3608 98.6524 80.7908 98.9324 81.1308C98.7924 80.9308 98.8824 80.9608 99.0024 81.1108C99.8924 82.1208 99.0924 81.1508 100.022 82.1508C100.542 82.6908 101.702 83.9908 102.872 85.3208C104.512 87.2108 106.182 89.1208 106.972 90.0208C107.092 89.8108 107.152 89.6908 107.212 89.5808C107.512 88.9108 107.862 88.2608 108.212 87.6008C108.382 87.2708 108.562 86.9508 108.722 86.6308C108.792 86.5008 108.852 86.3808 108.912 86.2508C108.952 86.1608 108.992 86.0808 109.032 85.9908L109.022 86.0708C109.362 85.3608 111.542 81.4708 111.942 80.6508L111.872 80.7508C112.192 80.0208 112.232 80.1608 112.562 79.6308C112.432 79.6508 112.692 79.0208 112.812 78.7908L112.832 78.8108C113.002 78.4608 113.342 77.6308 113.632 77.0508L113.672 77.1008C113.872 76.5908 114.372 75.7108 114.552 75.3608C114.992 74.5908 115.732 73.4308 116.222 72.3408L116.732 71.7408L116.772 71.6308L117.722 69.1908C117.932 68.6308 115.212 69.4008 115.202 69.3308C115.392 69.3008 115.582 69.2708 115.642 69.2708C115.592 69.2408 115.212 69.2908 115.022 69.3408L115.002 69.4308C114.552 69.5408 114.892 69.4008 114.442 69.4808C114.402 69.4208 114.812 69.3308 115.172 69.2708C114.852 69.3208 114.512 69.3208 114.392 69.4208C114.082 69.4408 114.412 69.3308 114.042 69.3708C113.782 69.4308 113.452 69.5608 113.142 69.5708V69.5608C112.402 69.6208 112.042 69.8508 111.362 69.9008L111.432 69.8708C111.192 69.8708 110.732 70.0008 110.302 70.0308C110.422 70.0208 110.542 70.0508 110.282 70.1008C109.782 70.1408 109.462 70.2408 109.092 70.2508L108.762 70.3708C107.052 70.6508 100.322 71.8808 98.6124 72.1808L98.6724 72.1608C96.9824 72.4608 94.5724 72.8808 91.9624 73.3308Z" fill="#948BB7" fill-opacity="0.25"/>
<path d="M82.3324 46.9908C84.2824 47.4208 86.3224 47.8708 88.2124 48.2908C89.3224 48.5308 90.3424 48.7408 91.1424 48.8908C91.5424 49.0508 92.1124 49.1608 92.5424 49.2808C92.3124 49.2008 92.4024 49.1708 92.5924 49.2208C93.9024 49.5208 92.6924 49.2008 94.0224 49.4708C94.7524 49.6108 96.4624 49.9908 98.1824 50.4008C100.612 50.9808 103.082 51.5608 104.252 51.8408C104.222 51.6008 104.212 51.4608 104.192 51.3408C104.052 50.6208 103.952 49.8908 103.852 49.1508C103.802 48.7808 103.752 48.4208 103.712 48.0608C103.692 47.9208 103.672 47.7808 103.652 47.6408C103.632 47.5408 103.612 47.4508 103.602 47.3608L103.632 47.4308C103.492 46.6508 103.012 42.2208 102.862 41.3208V41.4408C102.702 40.6608 102.822 40.7508 102.772 40.1208C102.672 40.2208 102.522 39.5508 102.482 39.2908L102.512 39.3008C102.442 38.9108 102.232 38.0408 102.142 37.4008L102.202 37.4208C102.072 36.8908 101.962 35.8808 101.912 35.4908C101.822 34.6108 101.742 33.2308 101.512 32.0608L101.582 31.2808L101.552 31.1708L100.902 28.6308C100.742 28.0508 98.9824 30.2608 98.9324 30.2108C99.0724 30.0708 99.2124 29.9408 99.2524 29.9108C99.1924 29.9208 98.9124 30.1808 98.7824 30.3308L98.8124 30.4108C98.5024 30.7608 98.7024 30.4508 98.3924 30.7808C98.3324 30.7508 98.6124 30.4408 98.8624 30.1808C98.6224 30.4108 98.3624 30.6108 98.3124 30.7508C98.0724 30.9508 98.2824 30.6708 97.9924 30.9108C97.8224 31.1108 97.6224 31.4108 97.3724 31.5908V31.5808C96.8024 32.0608 96.6424 32.4608 96.1124 32.8908L96.1524 32.8208C95.9524 32.9608 95.6624 33.3308 95.3224 33.6108C95.4224 33.5308 95.5324 33.4908 95.3524 33.6808C94.9724 34.0008 94.7624 34.2708 94.4724 34.5008L94.2724 34.7908C93.0424 36.0108 88.2824 40.9308 87.0724 42.1708L87.1124 42.1108C85.9024 43.3608 84.1824 45.1008 82.3324 46.9908Z" fill="#948BB7" fill-opacity="0.25"/>
<path d="M26.2924 93.8408C28.2824 94.0208 30.3624 94.2208 32.2924 94.4008C33.4224 94.5008 34.4624 94.5808 35.2724 94.6308C35.6924 94.7308 36.2724 94.7808 36.7124 94.8408C36.4724 94.7908 36.5624 94.7508 36.7524 94.7708C38.0924 94.9108 36.8524 94.7308 38.2024 94.8408C38.9424 94.8808 40.6824 95.0508 42.4424 95.2408C44.9324 95.5108 47.4524 95.7808 48.6424 95.9208C48.5824 95.6908 48.5524 95.5508 48.5224 95.4308C48.2924 94.7308 48.1024 94.0208 47.9124 93.3008C47.8124 92.9408 47.7224 92.5908 47.6324 92.2408C47.5924 92.1008 47.5524 91.9708 47.5124 91.8308C47.4824 91.7408 47.4524 91.6508 47.4224 91.5608L47.4624 91.6308C47.2324 90.8808 46.1924 86.5408 45.9324 85.6708L45.9524 85.7908C45.6924 85.0308 45.8224 85.1108 45.6924 84.5008C45.6124 84.6108 45.3824 83.9608 45.3024 83.7108H45.3324C45.2124 83.3308 44.9024 82.5008 44.7224 81.8708L44.7824 81.8808C44.5824 81.3708 44.3524 80.3808 44.2524 80.0008C44.0524 79.1308 43.8024 77.7808 43.4324 76.6508L43.4024 75.8608L43.3624 75.7508L42.4024 73.3208C42.1724 72.7708 40.7024 75.1808 40.6524 75.1308C40.7724 74.9808 40.8924 74.8308 40.9324 74.7908C40.8724 74.8108 40.6324 75.1008 40.5224 75.2708L40.5624 75.3508C40.3024 75.7408 40.4624 75.4108 40.1824 75.7708C40.1124 75.7508 40.3524 75.4108 40.5724 75.1208C40.3624 75.3808 40.1224 75.6108 40.1024 75.7608C39.8924 75.9908 40.0624 75.6808 39.8124 75.9608C39.6624 76.1808 39.5024 76.5008 39.2824 76.7208L39.2724 76.7108C38.7624 77.2508 38.6624 77.6708 38.1924 78.1708L38.2224 78.1008C38.0424 78.2708 37.8024 78.6708 37.5024 78.9908C37.5924 78.9008 37.6924 78.8508 37.5424 79.0608C37.2024 79.4308 37.0324 79.7208 36.7724 79.9808L36.6124 80.3008C35.5424 81.6608 31.4424 87.1408 30.3824 88.5208L30.4124 88.4608C29.3824 89.7908 27.8924 91.7408 26.2924 93.8408Z" fill="#948BB7" fill-opacity="0.25"/>
<path d="M26.1224 69.6608C25.0524 67.9808 23.9224 66.2108 22.8824 64.5808C22.2624 63.6308 21.6924 62.7508 21.2424 62.0808C21.0724 61.6908 20.7524 61.2008 20.5224 60.8208C20.6324 61.0408 20.5424 61.0008 20.4424 60.8308C19.7324 59.6908 20.3524 60.7808 19.6024 59.6408C19.1824 59.0208 18.2524 57.5508 17.3124 56.0408C16.0024 53.9108 14.6724 51.7508 14.0424 50.7308C13.8924 50.9208 13.8024 51.0308 13.7324 51.1208C13.3224 51.7308 12.8724 52.3208 12.4224 52.9108C12.2024 53.2008 11.9724 53.5008 11.7524 53.7808C11.6624 53.9008 11.5824 54.0108 11.5024 54.1208C11.4424 54.2008 11.3924 54.2808 11.3424 54.3608L11.3724 54.2908C10.9224 54.9408 8.13242 58.4108 7.60242 59.1508L7.69242 59.0608C7.25242 59.7308 7.23242 59.5808 6.82242 60.0608C6.95242 60.0608 6.59242 60.6408 6.43242 60.8508L6.42242 60.8308C6.19242 61.1508 5.72242 61.9108 5.34242 62.4408L5.31242 62.3808C5.03242 62.8508 4.39242 63.6408 4.16242 63.9508C3.60242 64.6408 2.68242 65.6608 2.01242 66.6508L1.41242 67.1608L1.36242 67.2608L0.0224188 69.5108C-0.277581 70.0308 2.53242 69.7208 2.53242 69.7908C2.34242 69.7908 2.15242 69.7908 2.09242 69.7708C2.14242 69.8008 2.52242 69.8208 2.72242 69.8008L2.75242 69.7208C3.21242 69.6908 2.86242 69.7708 3.31242 69.7608C3.33242 69.8308 2.92242 69.8408 2.55242 69.8508C2.88242 69.8608 3.21242 69.9108 3.34242 69.8308C3.65242 69.8608 3.30242 69.9108 3.68242 69.9408C3.94242 69.9208 4.29242 69.8508 4.60242 69.8908L4.59242 69.9008C5.33242 69.9708 5.73242 69.7908 6.40242 69.8608L6.33242 69.8808C6.57242 69.9208 7.04242 69.8608 7.47242 69.9108C7.35242 69.9008 7.24242 69.8508 7.50242 69.8408C8.00242 69.8808 8.34242 69.8408 8.70242 69.8908L9.05242 69.8208C10.7824 69.8308 17.6224 69.7208 19.3624 69.7008L19.2924 69.7108C21.0224 69.7008 23.4824 69.6808 26.1224 69.6608Z" fill="#948BB7" fill-opacity="0.25"/>
</svg>
