<svg width="33" height="178" viewBox="0 0 33 178" fill="none" xmlns="http://www.w3.org/2000/svg">
<path d="M27.0766 177.268H32.4066V155.438H27.0766L27.0766 177.268Z" fill="#FFFADE"/>
<path d="M13.5383 177.268H18.8683L18.8683 155.438H13.5383L13.5383 177.268Z" fill="#FFFADE"/>
<path d="M-3.05176e-05 177.268H5.32996L5.32996 155.438H-3.05176e-05L-3.05176e-05 177.268Z" fill="#FFFADE"/>
<path d="M27.0766 146.182H32.4066V124.352H27.0766L27.0766 146.182Z" fill="#FFFADE"/>
<path d="M13.5383 146.182H18.8683L18.8683 124.352H13.5383L13.5383 146.182Z" fill="#FFFADE"/>
<path d="M13.5383 115.097H18.8683L18.8683 93.2666H13.5383L13.5383 115.097Z" fill="#FFFADE"/>
<path d="M-3.05176e-05 115.097H5.32996L5.32996 93.2666H-3.05176e-05L-3.05176e-05 115.097Z" fill="#FFFADE"/>
<path d="M27.0766 84.001H32.4066V62.171H27.0766L27.0766 84.001Z" fill="#FFFADE"/>
<path d="M-3.05176e-05 84.001H5.32996L5.32996 62.171H-3.05176e-05L-3.05176e-05 84.001Z" fill="#FFFADE"/>
<path d="M27.0766 52.9156H32.4066V31.0857H27.0766L27.0766 52.9156Z" fill="#FFFADE"/>
<path d="M13.5383 52.9156H18.8683L18.8683 31.0857H13.5383L13.5383 52.9156Z" fill="#FFFADE"/>
<path d="M27.0766 21.83H32.4066V-4.3869e-05H27.0766L27.0766 21.83Z" fill="#FFFADE"/>
<path d="M13.5383 21.83H18.8683L18.8683 -4.3869e-05H13.5383L13.5383 21.83Z" fill="#FFFADE"/>
<path d="M-3.05176e-05 21.83H5.32996L5.32996 -4.3869e-05H-3.05176e-05L-3.05176e-05 21.83Z" fill="#FFFADE"/>
</svg>
